<svg xmlns="http://www.w3.org/2000/svg" viewBox="0 0 957.478 86.864" style="fill: rgb(255, 242, 0); width: 50vw; min-width: 300px;"><g transform="translate(-82.519 440.281)"><g transform="translate(237.499 -361.122)"><path d="M0,0C-2.6-2.237-3.9-2.721-7.329-2.721H-154.98V7.7H8.948Q4.474,3.852,0,0"></path></g><g transform="translate(197.394 -399.341)"><path d="M0,0Q4.474,3.85,8.949,7.7H-114.874V-2.721H-7.329C-3.9-2.721-2.6-2.237,0,0"></path></g><g transform="translate(82.52 -429.857)"><path d="M0,0H83.718L74.769-7.7c-2.6-2.236-3.9-2.72-7.329-2.72H0Z"></path></g><g transform="translate(361.626 -361.122)"><path d="M0,0C-2.6-2.237-3.9-2.721-7.329-2.721H-68.784L-147.757-76.3c-2.524-2.349-3.827-2.863-7.276-2.863h-11.609Q-124.118-38.633-81.59,1.893c5,4.768,7.607,5.811,14.516,5.811H8.949Q4.475,3.852,0,0"></path></g><g transform="translate(516.839 -391.638)"><path d="M0,0-8.948-7.7c-2.6-2.237-3.9-2.721-7.329-2.721H-123.822V0Z"></path></g><g transform="translate(467.786 -437.561)"><path d="M0,0Q4.474,3.854,8.949,7.7H-74.769V-2.72h67.44C-3.9-2.72-2.6-2.236,0,0"></path></g><g transform="translate(393.017 -363.844)"><path d="M0,0H147.65c3.427,0,4.731.484,7.329,2.721l8.947,7.7H0Z"></path></g><g transform="translate(591.187 -429.857)"><path d="M0,0H-64.943c-3.429,0-4.732-.484-7.329-2.72l-8.949-7.7H82.141V0H13.029V76.438H0Z"></path></g><g transform="translate(834.296 -427.428)"><path d="M0,0Q-13.86,12.684-27.721,25.365H-136.828V74.01H-123.8V35.789h90.165Q-17.749,52.821-1.861,69.852c3.175,3.4,4.908,4.159,9.563,4.159H18.589q-17.348-18.6-34.7-37.2c-1.927-2.067-1.892-3.263.155-5.212Q3.559,13,23.073-5.593c2.016-1.921,3.455-3.648,2.783-5.325s-2.9-1.935-5.687-1.935h-157V-2.429H-.945C1.272-2.429,1.635-1.5,0,0"></path></g><g transform="translate(956.279 -429.857)"><path d="M0,0H83.718V-10.424H16.279c-3.429,0-4.731.484-7.329,2.72L0,0"></path></g><g transform="translate(916.174 -391.638)"><path d="M0,0H123.824V-10.424H16.279c-3.429,0-4.731.484-7.329,2.721Q4.475-3.853,0,0"></path></g><g transform="translate(876.071 -353.418)"><path d="M0,0H163.926V-10.425H16.277c-3.429,0-4.732.483-7.329,2.721Q4.474-3.852,0,0"></path></g></g></svg>