<svg xmlns="http://www.w3.org/2000/svg" version="1.1" xmlns:xlink="http://www.w3.org/1999/xlink" xmlns:svgjs="http://svgjs.com/svgjs" width="512" height="512" x="0" y="0" viewBox="0 0 384 384" style="enable-background:new 0 0 512 512" xml:space="preserve" class=""><g><path d="M192 136c-30.872 0-56 25.12-56 56s25.128 56 56 56 56-25.12 56-56-25.128-56-56-56zm0 80c-13.232 0-24-10.768-24-24s10.768-24 24-24 24 10.768 24 24-10.768 24-24 24z" fill="#ffffff" data-original="#000000" class="" opacity="1"></path><path d="M368 176h-32.944C327.648 109.368 274.632 56.352 208 48.944V16c0-8.832-7.168-16-16-16s-16 7.168-16 16v32.944C109.368 56.352 56.352 109.368 48.944 176H16c-8.832 0-16 7.168-16 16s7.168 16 16 16h32.944C56.352 274.632 109.368 327.648 176 335.056V368c0 8.832 7.168 16 16 16s16-7.168 16-16v-32.944c66.632-7.408 119.648-60.424 127.056-127.056H368c8.832 0 16-7.168 16-16s-7.168-16-16-16zM192 304c-61.76 0-112-50.24-112-112S130.24 80 192 80s112 50.24 112 112-50.24 112-112 112z" fill="#ffffff" data-original="#000000" class="" opacity="1"></path></g></svg>