<svg xmlns:dc="http://purl.org/dc/elements/1.1/" xmlns:cc="http://creativecommons.org/ns#" xmlns:rdf="http://www.w3.org/1999/02/22-rdf-syntax-ns#" xmlns:svg="http://www.w3.org/2000/svg" xmlns="http://www.w3.org/2000/svg" xmlns:sodipodi="http://sodipodi.sourceforge.net/DTD/sodipodi-0.dtd" xmlns:inkscape="http://www.inkscape.org/namespaces/inkscape" version="1.1" x="0px" y="0px" viewBox="0 0 148 148" xml:space="preserve" id="svg16" sodipodi:docname="noun_message_1454470.svg" width="148" height="148" inkscape:version="0.92.2 5c3e80d, 2017-08-06" fill="#ffffff"><path d="m 40,60 h 56 c 1.104,0 2,-0.896 2,-2 0,-1.104 -0.896,-2 -2,-2 H 40 c -1.104,0 -2,0.896 -2,2 0,1.104 0.896,2 2,2 z" id="path2" inkscape:connector-curvature="0"/><path d="m 40,68 h 56 c 1.104,0 2,-0.896 2,-2 0,-1.104 -0.896,-2 -2,-2 H 40 c -1.104,0 -2,0.896 -2,2 0,1.104 0.896,2 2,2 z" id="path4" inkscape:connector-curvature="0"/><path d="m 40,76 h 56 c 1.104,0 2,-0.896 2,-2 0,-1.104 -0.896,-2 -2,-2 H 40 c -1.104,0 -2,0.896 -2,2 0,1.104 0.896,2 2,2 z" id="path6" inkscape:connector-curvature="0"/><path d="m 18,110 h 4 v 22.293 c 0,3.675 1.304,5.707 3.256,5.707 1.021,0 2.218,-0.556 3.499,-1.722 L 57.608,110 H 118 c 4.4,0 8,-3.6 8,-8 V 30 c 0,-4.4 -3.6,-8 -8,-8 H 18 c -4.4,0 -8,3.6 -8,8 v 72 c 0,4.4 3.6,8 8,8 z M 14,30 c 0,-2.206 1.794,-4 4,-4 h 100 c 2.206,0 4,1.794 4,4 v 72 c 0,2.206 -1.794,4 -4,4 H 56.092 L 26.061,133.32 C 26.059,133.323 26,106 26,106 h -8 c -2.206,0 -4,-1.794 -4,-4 z" id="path10" inkscape:connector-curvature="0"/></svg>