<svg width="24" height="24" viewBox="0 0 22 22" xmlns="http://www.w3.org/2000/svg" fill="#fdef00">
    <path fill-rule="evenodd" clip-rule="evenodd" d="M10.9997 0.333008C8.10278 0.333008 7.73922 0.345675 6.60143 0.397453C5.46586 0.449453 4.69074 0.629233 4.01251 0.893014C3.31095 1.16546 2.71583 1.52991 2.12294 2.12303C1.5296 2.71592 1.16515 3.31104 0.891815 4.01238C0.627368 4.69083 0.447366 5.46617 0.396254 6.60129C0.345365 7.73908 0.332031 8.10287 0.332031 10.9998C0.332031 13.8967 0.34492 14.2592 0.396476 15.3969C0.448699 16.5325 0.628479 17.3076 0.892037 17.9859C1.16471 18.6874 1.52916 19.2825 2.12227 19.8754C2.71495 20.4688 3.31006 20.8341 4.01118 21.1066C4.68986 21.3703 5.4652 21.5501 6.60054 21.6021C7.73833 21.6539 8.10167 21.6666 10.9984 21.6666C13.8955 21.6666 14.258 21.6539 15.3957 21.6021C16.5313 21.5501 17.3073 21.3703 17.986 21.1066C18.6873 20.8341 19.2816 20.4688 19.8742 19.8754C20.4676 19.2825 20.832 18.6874 21.1054 17.9861C21.3676 17.3076 21.5476 16.5323 21.6009 15.3972C21.652 14.2594 21.6654 13.8967 21.6654 10.9998C21.6654 8.10287 21.652 7.73931 21.6009 6.60152C21.5476 5.46595 21.3676 4.69083 21.1054 4.0126C20.832 3.31104 20.4676 2.71592 19.8742 2.12303C19.2809 1.52969 18.6876 1.16524 17.9853 0.893014C17.3053 0.629233 16.5298 0.449453 15.3942 0.397453C14.2564 0.345675 13.8942 0.333008 10.9964 0.333008H10.9997ZM10.0428 2.25522C10.3268 2.25478 10.6436 2.25522 10.9997 2.25522C13.8477 2.25522 14.1852 2.26544 15.3099 2.31655C16.3499 2.36411 16.9144 2.53789 17.2904 2.68389C17.7882 2.87723 18.1431 3.10834 18.5162 3.48168C18.8895 3.85501 19.1206 4.21057 19.3144 4.70836C19.4604 5.08392 19.6344 5.64837 19.6817 6.68838C19.7329 7.81283 19.744 8.15062 19.744 10.9973C19.744 13.844 19.7329 14.1818 19.6817 15.3062C19.6342 16.3463 19.4604 16.9107 19.3144 17.2863C19.1211 17.784 18.8895 18.1385 18.5162 18.5116C18.1428 18.885 17.7884 19.1161 17.2904 19.3094C16.9148 19.4561 16.3499 19.6294 15.3099 19.677C14.1855 19.7281 13.8477 19.7392 10.9997 19.7392C8.1514 19.7392 7.81384 19.7281 6.68939 19.677C5.64937 19.629 5.08492 19.4552 4.7087 19.3092C4.21092 19.1158 3.85536 18.8847 3.48202 18.5114C3.10868 18.1381 2.87757 17.7834 2.68379 17.2854C2.53779 16.9098 2.36378 16.3454 2.31645 15.3054C2.26534 14.1809 2.25512 13.8431 2.25512 10.9946C2.25512 8.14617 2.26534 7.81017 2.31645 6.68571C2.36401 5.6457 2.53779 5.08125 2.68379 4.70525C2.87712 4.20746 3.10868 3.8519 3.48202 3.47857C3.85536 3.10523 4.21092 2.87412 4.7087 2.68034C5.0847 2.53367 5.64937 2.36033 6.68939 2.31255C7.6734 2.26811 8.05473 2.25478 10.0428 2.25255V2.25522ZM16.6935 4.02635C15.9868 4.02635 15.4135 4.59903 15.4135 5.30592C15.4135 6.0126 15.9868 6.58594 16.6935 6.58594C17.4002 6.58594 17.9735 6.0126 17.9735 5.30592C17.9735 4.59925 17.4002 4.02635 16.6935 4.02635ZM10.9997 5.52192C7.97457 5.52192 5.52188 7.97461 5.52188 10.9998C5.52188 14.0249 7.97457 16.4765 10.9997 16.4765C14.0249 16.4765 16.4767 14.0249 16.4767 10.9998C16.4767 7.97461 14.0249 5.52192 10.9997 5.52192ZM10.9997 7.44416C12.9633 7.44416 14.5553 9.03596 14.5553 10.9998C14.5553 12.9633 12.9633 14.5553 10.9997 14.5553C9.03588 14.5553 7.44408 12.9633 7.44408 10.9998C7.44408 9.03596 9.03588 7.44416 10.9997 7.44416Z"></path>
  </svg>